# xmcd CD database file generated by MAGIX-FreeDB- v3.0beta1
#
# Track frame offsets:
#	150
#	14302
#	34077
#	53905
#	66430
#	83992
#	97395
#	117375
#	128002
#	143300
#	161687
#	183382
#	196332
#	206567
#	223722
#	246322
#
# Disc length: 3570
#
# Revision: 2
# Processed by: cddbd v1.5.2PL0 Copyright (c) Steve Scherf et al.
# Submitted via: MAGIX-FreeDB- v3.0beta1
#
DISCID=ec0df010
DTITLE=Acker Bilk - The Very Best Of
DYEAR=1997
DGENRE=Jazz
TTITLE0=Stranger On The Shore
TTITLE1=Yesterday
TTITLE2=A Rainy Night In  Georgia
TTITLE3=A Taste Of Honey
TTITLE4=Aria
TTITLE5=Lonely
TTITLE6=Nights In White Satin
TTITLE7=White Cliffs Of Dover
TTITLE8=Lay Lady Lay
TTITLE9=Buona Srea
TTITLE10=Bridge Over Troubled Water
TTITLE11=Summer Set
TTITLE12=That's My Home
TTITLE13=A Whiter Shade Of Pale
TTITLE14=(Every Thing I Do) I Do For You
TTITLE15=You've Got A Friend
EXTD=
EXTT0=
EXTT1=
EXTT2=
EXTT3=
EXTT4=
EXTT5=
EXTT6=
EXTT7=
EXTT8=
EXTT9=
EXTT10=
EXTT11=
EXTT12=
EXTT13=
EXTT14=
EXTT15=
PLAYORDER=
